# xmcd
#
# Track frame offsets: 
#        150
#        12709
#        25493
#        38584
#        52096
#        63460
#        78000
#        91149
#        104988
#        116584
#        131310
#        144572
#        157404
#        170547
#        181256
#        194879
#        207268
#        221971
#        233281
#        246765
#
# Disc length: 3465 seconds
#
# Revision: 4
# Processed by: cddbd v1.5.2PL0 Copyright (c) Steve Scherf et al.
# Submitted via: ExactAudioCopyFreeDBPlugin 1.0
#
DISCID=280d8714
DTITLE=Various Artist - Blues Selection - Vol. 07
DYEAR=2006
DGENRE=Blues
TTITLE0=Memphis Slim - The Jive Blues (1940)
TTITLE1=Brownie McGhee - Good-Bye Now (1941)
TTITLE2=T-Bone Walker - Mean Old World (1942)
TTITLE3=Big Joe Turner - Goin' To Chicago Blues (1941)
TTITLE4=Champion Jack Dupree - Chain Gang Blues (1941)
TTITLE5=Big Joe Williams - Break 'Em On Down (1940)
TTITLE6=Big Bill Broonzy - Jivin' Mr. Fuller Blues (1940)
TTITLE7=Muddy Waters - I Be's Troubled (1941)
TTITLE8=Memphis Minnie - In My Girlish Days (1941)
TTITLE9=Hot Lips Page - Thirsty Mama Blues (1940)
TTITLE10=John Lee 'Sonny Boy' Williamson - War Time Blues (1940)
TTITLE11=Blind Boy Fuller and Sonny Terry - Shake Down Blues (1940)
TTITLE12=John Lee 'Sonny Boy' Williamson - Whiskey Headed Blues (1938)
TTITLE13=Brownie McGhee - Swing, Soldier, Swing (1941)
TTITLE14=Dr. Clayton - Pearl Harbour Blues (1942)
TTITLE15=John Lee 'Sonny Boy' Williamson - I Win The War Blues (1944)
TTITLE16=T-Bone Walker - T-Bone Blues (1940)
TTITLE17=Arthur 'Big Boy' Crudup - Keep Our Arms Around Me (1944)
TTITLE18=Lightnin' Hopkins - Katie May (1946)
TTITLE19=Lonnie Johnson - Keep What You Got (1946)
EXTD=
EXTT0=
EXTT1=
EXTT2=
EXTT3=
EXTT4=
EXTT5=
EXTT6=
EXTT7=
EXTT8=
EXTT9=
EXTT10=
EXTT11=
EXTT12=
EXTT13=
EXTT14=
EXTT15=
EXTT16=
EXTT17=
EXTT18=
EXTT19=
PLAYORDER=
